<?xml version="1.0" standalone="no"?><!DOCTYPE svg PUBLIC "-//W3C//DTD SVG 1.1//EN" "http://www.w3.org/Graphics/SVG/1.1/DTD/svg11.dtd"><svg t="1660187942057" class="icon" viewBox="0 0 1024 1024" version="1.1" xmlns="http://www.w3.org/2000/svg" p-id="4229" xmlns:xlink="http://www.w3.org/1999/xlink" width="200" height="200"><defs><style type="text/css">@font-face { font-family: feedback-iconfont; src: url("//at.alicdn.com/t/font_1031158_u69w8yhxdu.woff2?t=1630033759944") format("woff2"), url("//at.alicdn.com/t/font_1031158_u69w8yhxdu.woff?t=1630033759944") format("woff"), url("//at.alicdn.com/t/font_1031158_u69w8yhxdu.ttf?t=1630033759944") format("truetype"); }
</style></defs><path d="M696.7 260.8l-70.6-74c-8.5-8.9-22.8-9-31.4-0.1L349.3 442.1c-7 7.3-7.1 18.9-0.1 26.3l74.3 78c7.5 7.8 20 7.9 27.5 0.1l245.6-255.6c8.1-8.5 8.1-21.7 0.1-30.1zM707.7 683.5H257c-14.2 0-25.5 11.9-25.5 26.7s11.3 26.7 25.5 26.7h450.8c14.2 0 25.5-11.9 25.5-26.7-0.1-14.8-11.4-26.7-25.6-26.7zM780 201.2c16.7-17.5 16.7-45.9 0-63.3l-40.2-42.2c-16.8-17.5-43.7-17.5-60.4 0l-36.1 37.8c-8 8.4-8 21.6 0 30l70.6 74c8.5 9 22.9 9 31.4 0l34.7-36.3zM397.6 560.5l-59.4-62.3c-9.8-10.2-26.9-6.6-31.7 6.7l-40.9 114.5c-3.8 10.7 6.9 20.9 17.4 16.5l108.1-44.8c12.3-5 15.7-20.9 6.5-30.6z" p-id="4230"></path><path d="M1024 259.2c-0.1-3.4-1.1-6.7-3-9.7-4.5-7.1-13.3-11.3-23.6-11.3H889.6c-14.1 0-25.6 11.5-25.6 25.6 0 14.1 11.5 25.6 25.6 25.6h66.5c8.6 0 15.6 7 15.6 15.6v497.2c0 13.2-10.7 24-24 24H88.4c-15.9 0-28.9-12.9-28.9-28.9V313.4c0-13.3 10.7-24 24-24h180.9c14.1 0 25.6-11.5 25.6-25.6 0-14.1-11.5-25.6-25.6-25.6H33.9c-15.5 0-28.5 8.9-33 22.7l-0.5 1.5V882H0v33.7c0 13.7 12 25.7 25.6 25.7h972.5c13.4 0 25.6-12.2 25.6-25.7V882c0-0.1 0.3-620.6 0.3-622.8z m-426 647H424.3c-10.7 0-19.3-8.7-19.3-19.3 0-10.7 8.7-19.3 19.3-19.3H598c10.7 0 19.3 8.7 19.3 19.3 0 10.6-8.7 19.3-19.3 19.3z" p-id="4231"></path></svg>